<svg enable-background="new 0 0 550.5073 1010" viewBox="0 0 550.5073 1010" xmlns="http://www.w3.org/2000/svg"><path d="m338.4292 770.0498.2558 164.0879c-2.2285 19.9814-14.5058 38.8232-32.7871 49.2314-22.3115 12.7881-53.2959 12.1416-75.5732-.3066-18.6045-10.5771-30.6275-29.2324-32.7188-49.3672v-163.7305" fill="#907973"/><path d="m268.7744 1010c-16.2915 0-32.7358-3.9453-46.8677-11.8535-23.3315-13.2813-38.7729-36.6807-41.4936-62.666-.0513-.5782-.085-1.1895-.085-1.7852v-163.7305c0-9.54 7.7202-17.2607 17.2778-17.2607 9.5401 0 17.2608 7.7207 17.2608 17.2607v162.7784c1.7851 14.5908 10.6963 27.7529 24.0117 35.3213 17.2437 9.6582 41.8682 9.8115 58.4492.3222 13.0254-7.4316 22.1748-20.8652 24.0791-35.2695l-.2373-163.0332c-.0176-9.54 7.7031-17.2773 17.2266-17.2949h.0332c9.5234 0 17.2441 7.7031 17.2617 17.2266l.2539 164.0879c0 .6631-.0332 1.3096-.1016 1.9385-2.8574 25.543-18.7226 49.4189-41.3916 62.3262-13.5361 7.7372-29.539 11.6317-45.6772 11.6317z" fill="#37474f"/><path d="m532.396 160.8564c2.1933-36.7495-18.9102-66.9174-49.1289-88.1064-26.2735-18.7061-55.5235-30.3379-85.7774-39.4702-97.0508-26.5288-214.1176-21.0869-302.4282 23.5361-38.8408 19.1992-76.3726 57.4961-77.7837 102.6968l.6289 599.2803 515.0341.084.2891-7.7031z" fill="#ffca72"/><g fill="#37474f"><path d="m532.9409 776.1377-515.0341-.085c-9.5229 0-17.2431-7.7207-17.2607-17.2441l-.6461-599.2788c1.7514-56.3565 48.1938-98.8027 87.4092-118.2061 53.4995-27.0219 118.5634-41.3237 188.0654-41.3237 42.9731 0 86.7456 5.7476 126.5561 16.6143 38.7735 11.7002 66.7637 24.6245 91.252 42.0888 38.6367 27.0904 58.7041 63.7544 56.3398 103.1905l.8848 589.2626-.3232 8.3848c-.3565 9.2676-7.9756 16.5967-17.2432 16.5967zm-497.79-34.6231 480.8174.085-.833-580.7261c2.0918-35.6611-21.5634-59.809-41.7822-73.9746-21.3935-15.2544-46.29-26.665-80.8623-37.1064-36.4434-9.9483-77.0527-15.271-117.0161-15.271-64.1113 0-123.8013 13.0264-172.6245 37.7012-33.2119 16.4106-67.1382 49.895-68.3115 87.8344z"/><path d="m180.8721 689.375c-9.5401 0-17.2608-7.7207-17.2608-17.2607v-479.8316c0-9.54 7.7207-17.2607 17.2608-17.2607 9.54 0 17.2607 7.7207 17.2607 17.2607v479.8316c0 9.54-7.7207 17.2607-17.2607 17.2607z"/><path d="m369.6518 689.375c-9.54 0-17.2607-7.7207-17.2607-17.2607v-479.8316c0-9.54 7.7207-17.2607 17.2607-17.2607 9.5411 0 17.2608 7.7207 17.2608 17.2607v479.8316c0 9.54-7.7197 17.2607-17.2608 17.2607z"/></g></svg>